<svg xmlns="http://www.w3.org/2000/svg" xmlns:xlink="http://www.w3.org/1999/xlink" width="250" zoomAndPan="magnify" viewBox="0 0 187.5 74.999997" height="100" preserveAspectRatio="xMidYMid meet" version="1.0"><defs><g/><clipPath id="ee4f625da8"><path d="M 57.746094 47.328125 L 83.398438 47.328125 L 83.398438 52.609375 L 57.746094 52.609375 Z M 57.746094 47.328125 " clip-rule="nonzero"/></clipPath></defs><g fill="#2e2e2e" fill-opacity="1"><g transform="translate(55.197326, 44.722369)"><g><path d="M 2.953125 0 L 2.953125 -22.609375 L 11.21875 -22.609375 C 12.21875 -22.609375 13.179688 -22.445312 14.109375 -22.125 C 15.003906 -21.800781 15.800781 -21.335938 16.5 -20.734375 C 17.238281 -20.109375 17.816406 -19.378906 18.234375 -18.546875 C 18.628906 -17.710938 18.828125 -16.84375 18.828125 -15.9375 C 18.828125 -15.007812 18.628906 -14.144531 18.234375 -13.34375 C 17.816406 -12.507812 17.238281 -11.765625 16.5 -11.109375 C 15.800781 -10.515625 15.003906 -10.050781 14.109375 -9.71875 C 13.179688 -9.375 12.21875 -9.203125 11.21875 -9.203125 L 5.90625 -9.203125 L 5.90625 0 Z M 5.90625 -12.125 L 11.21875 -12.125 C 12.070312 -12.125 12.859375 -12.296875 13.578125 -12.640625 C 14.296875 -12.992188 14.875 -13.457031 15.3125 -14.03125 C 15.726562 -14.613281 15.9375 -15.25 15.9375 -15.9375 C 15.9375 -16.613281 15.726562 -17.238281 15.3125 -17.8125 C 14.875 -18.394531 14.296875 -18.859375 13.578125 -19.203125 C 12.835938 -19.523438 12.050781 -19.6875 11.21875 -19.6875 L 5.828125 -19.6875 Z M 5.90625 -12.125 "/></g></g></g><g fill="#2e2e2e" fill-opacity="1"><g transform="translate(72.975191, 44.722369)"><g><path d="M 18 -2.4375 C 17.15625 -1.570312 16.203125 -0.921875 15.140625 -0.484375 C 14.078125 -0.0234375 12.941406 0.203125 11.734375 0.203125 C 10.554688 0.203125 9.4375 -0.0234375 8.375 -0.484375 C 7.28125 -0.921875 6.328125 -1.570312 5.515625 -2.4375 C 4.679688 -3.269531 4.046875 -4.226562 3.609375 -5.3125 C 3.171875 -6.375 2.953125 -7.507812 2.953125 -8.71875 L 2.953125 -22.609375 L 5.828125 -22.609375 L 5.828125 -8.71875 C 5.828125 -7.90625 5.976562 -7.128906 6.28125 -6.390625 C 6.582031 -5.648438 7.015625 -5.003906 7.578125 -4.453125 C 8.796875 -3.265625 10.179688 -2.671875 11.734375 -2.671875 C 12.503906 -2.671875 13.257812 -2.832031 14 -3.15625 C 14.71875 -3.457031 15.351562 -3.890625 15.90625 -4.453125 C 16.457031 -5.003906 16.882812 -5.648438 17.1875 -6.390625 C 17.488281 -7.128906 17.640625 -7.90625 17.640625 -8.71875 L 17.640625 -22.609375 L 20.53125 -22.609375 L 20.53125 -8.71875 C 20.53125 -7.507812 20.3125 -6.375 19.875 -5.3125 C 19.425781 -4.226562 18.800781 -3.269531 18 -2.4375 Z M 18 -2.4375 "/></g></g></g><g fill="#2e2e2e" fill-opacity="1"><g transform="translate(93.426784, 44.722369)"><g><path d="M 18.890625 0 L 15.25 0 L 6.671875 -12.125 L 9.9375 -12.125 C 10.769531 -12.125 11.507812 -12.179688 12.15625 -12.296875 C 12.78125 -12.390625 13.265625 -12.503906 13.609375 -12.640625 C 14.328125 -12.960938 14.894531 -13.4375 15.3125 -14.0625 C 15.726562 -14.664062 15.9375 -15.289062 15.9375 -15.9375 C 15.9375 -16.59375 15.742188 -17.207031 15.359375 -17.78125 C 14.960938 -18.34375 14.394531 -18.804688 13.65625 -19.171875 C 12.914062 -19.515625 12.054688 -19.6875 11.078125 -19.6875 L 5.828125 -19.6875 L 5.90625 0 L 2.953125 0 L 2.953125 -22.609375 L 11.078125 -22.609375 C 12.171875 -22.609375 13.191406 -22.4375 14.140625 -22.09375 C 15.085938 -21.738281 15.921875 -21.238281 16.640625 -20.59375 C 17.335938 -19.96875 17.878906 -19.25 18.265625 -18.4375 C 18.640625 -17.632812 18.828125 -16.800781 18.828125 -15.9375 C 18.828125 -14.570312 18.410156 -13.347656 17.578125 -12.265625 C 16.878906 -11.335938 15.941406 -10.582031 14.765625 -10 C 13.859375 -9.675781 13.054688 -9.515625 12.359375 -9.515625 Z M 18.890625 0 "/></g></g></g><g fill="#2e2e2e" fill-opacity="1"><g transform="translate(111.447716, 44.722369)"><g><path d="M 2.953125 -22.609375 L 17.40625 -22.609375 L 17.40625 -19.6875 L 5.828125 -19.6875 L 5.828125 -12.78125 L 14.6875 -12.78125 L 14.6875 -9.859375 L 5.828125 -9.859375 L 5.828125 -2.890625 L 17.40625 -2.890625 L 17.40625 0 L 2.953125 0 Z M 2.953125 -22.609375 "/></g></g></g><g fill="#2e2e2e" fill-opacity="1"><g transform="translate(85.031867, 51.311223)"><g><path d="M 0.046875 0 L 1.328125 -3.21875 L 2.046875 -3.21875 L 3.328125 0 L 2.546875 0 L 2.328125 -0.5625 L 1.046875 -0.5625 L 0.828125 0 Z M 1.234375 -1.140625 L 2.140625 -1.140625 L 1.6875 -2.3125 Z M 1.234375 -1.140625 "/></g></g></g><g fill="#2e2e2e" fill-opacity="1"><g transform="translate(89.514264, 51.311223)"><g><path d="M 0.390625 0 L 0.390625 -3.21875 L 1.65625 -3.21875 C 2 -3.21875 2.296875 -3.148438 2.546875 -3.015625 C 2.804688 -2.890625 3.003906 -2.703125 3.140625 -2.453125 C 3.285156 -2.210938 3.359375 -1.929688 3.359375 -1.609375 C 3.359375 -1.285156 3.285156 -1.003906 3.140625 -0.765625 C 3.003906 -0.523438 2.804688 -0.335938 2.546875 -0.203125 C 2.296875 -0.0664062 2 0 1.65625 0 Z M 1.125 -0.671875 L 1.65625 -0.671875 C 1.84375 -0.671875 2.007812 -0.707031 2.15625 -0.78125 C 2.300781 -0.863281 2.410156 -0.972656 2.484375 -1.109375 C 2.566406 -1.253906 2.609375 -1.421875 2.609375 -1.609375 C 2.609375 -1.804688 2.566406 -1.972656 2.484375 -2.109375 C 2.410156 -2.242188 2.300781 -2.347656 2.15625 -2.421875 C 2.007812 -2.503906 1.835938 -2.546875 1.640625 -2.546875 L 1.125 -2.546875 Z M 1.125 -0.671875 "/></g></g></g><g fill="#2e2e2e" fill-opacity="1"><g transform="translate(94.190151, 51.311223)"><g><path d="M 0.390625 0 L 0.390625 -3.21875 L 1.015625 -3.21875 L 2.15625 -1.546875 L 3.296875 -3.21875 L 3.921875 -3.21875 L 3.921875 0 L 3.1875 0 L 3.1875 -1.9375 L 2.40625 -0.796875 L 1.90625 -0.796875 L 1.109375 -1.9375 L 1.109375 0 Z M 0.390625 0 "/></g></g></g><g fill="#2e2e2e" fill-opacity="1"><g transform="translate(99.612338, 51.311223)"><g><path d="M 0.390625 0 L 0.390625 -3.21875 L 1.125 -3.21875 L 1.125 0 Z M 0.390625 0 "/></g></g></g><g fill="#2e2e2e" fill-opacity="1"><g transform="translate(102.238201, 51.311223)"><g><path d="M 0.390625 0 L 0.390625 -3.21875 L 1.015625 -3.21875 L 2.4375 -1.265625 L 2.4375 -3.21875 L 3.15625 -3.21875 L 3.15625 0 L 2.546875 0 L 1.109375 -1.984375 L 1.109375 0 Z M 0.390625 0 "/></g></g></g><g fill="#2e2e2e" fill-opacity="1"><g transform="translate(106.904873, 51.311223)"><g/></g></g><g fill="#2e2e2e" fill-opacity="1"><g transform="translate(109.106912, 51.311223)"><g><path d="M 0.390625 0 L 0.390625 -3.21875 L 1.65625 -3.21875 C 1.914062 -3.21875 2.140625 -3.171875 2.328125 -3.078125 C 2.515625 -2.984375 2.660156 -2.847656 2.765625 -2.671875 C 2.878906 -2.503906 2.9375 -2.300781 2.9375 -2.0625 C 2.9375 -1.820312 2.878906 -1.613281 2.765625 -1.4375 C 2.660156 -1.269531 2.515625 -1.140625 2.328125 -1.046875 C 2.140625 -0.953125 1.914062 -0.90625 1.65625 -0.90625 L 1.125 -0.90625 L 1.125 0 Z M 1.109375 -1.53125 L 1.59375 -1.53125 C 1.78125 -1.53125 1.925781 -1.570312 2.03125 -1.65625 C 2.132812 -1.75 2.1875 -1.882812 2.1875 -2.0625 C 2.1875 -2.226562 2.132812 -2.351562 2.03125 -2.4375 C 1.925781 -2.53125 1.78125 -2.578125 1.59375 -2.578125 L 1.109375 -2.578125 Z M 1.109375 -1.53125 "/></g></g></g><g fill="#2e2e2e" fill-opacity="1"><g transform="translate(113.289871, 51.311223)"><g><path d="M 0.046875 0 L 1.328125 -3.21875 L 2.046875 -3.21875 L 3.328125 0 L 2.546875 0 L 2.328125 -0.5625 L 1.046875 -0.5625 L 0.828125 0 Z M 1.234375 -1.140625 L 2.140625 -1.140625 L 1.6875 -2.3125 Z M 1.234375 -1.140625 "/></g></g></g><g fill="#2e2e2e" fill-opacity="1"><g transform="translate(117.772268, 51.311223)"><g><path d="M 0.390625 0 L 0.390625 -3.21875 L 1.015625 -3.21875 L 2.4375 -1.265625 L 2.4375 -3.21875 L 3.15625 -3.21875 L 3.15625 0 L 2.546875 0 L 1.109375 -1.984375 L 1.109375 0 Z M 0.390625 0 "/></g></g></g><g fill="#2e2e2e" fill-opacity="1"><g transform="translate(122.43894, 51.311223)"><g><path d="M 0.390625 0 L 0.390625 -3.21875 L 2.5 -3.21875 L 2.5 -2.609375 L 1.109375 -2.609375 L 1.109375 -1.9375 L 2.390625 -1.9375 L 2.390625 -1.328125 L 1.109375 -1.328125 L 1.109375 -0.625 L 2.5625 -0.625 L 2.5625 0 Z M 0.390625 0 "/></g></g></g><g fill="#2e2e2e" fill-opacity="1"><g transform="translate(126.350097, 51.311223)"><g><path d="M 0.390625 0 L 0.390625 -3.21875 L 1.125 -3.21875 L 1.125 -0.6875 L 2.53125 -0.6875 L 2.53125 0 Z M 0.390625 0 "/></g></g></g><g clip-path="url(#ee4f625da8)"><path fill="#2e2e2e" d="M 57.746094 47.328125 L 83.394531 47.328125 L 83.394531 52.609375 L 57.746094 52.609375 Z M 57.746094 47.328125 " fill-opacity="1" fill-rule="nonzero"/></g></svg>